<?xml version="1.0" encoding="utf-8"?>
<!-- Generator: Adobe Illustrator 23.1.1, SVG Export Plug-In . SVG Version: 6.00 Build 0)  -->
<svg version="1.1" id="Layer_1" xmlns="http://www.w3.org/2000/svg" xmlns:xlink="http://www.w3.org/1999/xlink" x="0px" y="0px"
	 viewBox="0 0 288 360" style="enable-background:new 0 0 288 360;" xml:space="preserve">
<g>
	<g>
		<g>
			<path d="M235.32,220.48c-22.58,22.27-51.76,32.62-83.44,32.62c-81.56,0-116.06-56.15-116.38-113.24
				C35.19,82.46,72.52,24.11,151.88,24.11c29.8,0,58.03,11.29,80.62,33.56l-27.6,26.66c-14.43-14.12-33.88-20.7-53.01-20.7
				c-53.01,0-75.91,39.52-75.6,76.22c0.31,36.39,21.33,74.34,75.6,74.34c19.13,0,40.78-7.84,55.21-22.27L235.32,220.48z"/>
		</g>
	</g>
	<g>
		<g>
			<path d="M97.98,334.36V115.13h157.76v39.83H139.38v59.9v38.26v81.23H97.98z"/>
		</g>
	</g>
	<g>
		<path d="M271.74,13.88v332.25H16.26V13.88H271.74 M279.74,5.88H8.26v348.25h271.49V5.88L279.74,5.88z"/>
	</g>
</g>
</svg>
