<svg id="Layer_1" data-name="Layer 1" xmlns="http://www.w3.org/2000/svg" viewBox="0 0 1200 628"><defs><style>.cls-1{fill:#f1f1f1;}</style></defs><title>Artboard 1</title><rect class="cls-1" x="59.74" y="59.69" width="1080.53" height="508.63"/><path d="M541.4,276.09c-7.06,7-16.17,10.19-26.07,10.19-25.48,0-36.26-17.54-36.36-35.38s11.56-36.16,36.36-36.16a35.43,35.43,0,0,1,25.19,10.48l-8.63,8.33a23.55,23.55,0,0,0-16.56-6.46c-16.56,0-23.72,12.34-23.62,23.81s6.66,23.23,23.62,23.23a25.25,25.25,0,0,0,17.25-7Z"/><path d="M584,236.4h11.46v48.31H584.22l-.59-7c-2.74,5.68-10.29,8.43-15.68,8.52-14.31.1-24.89-8.72-24.89-25.67,0-16.67,11.07-25.39,25.19-25.29,6.46,0,12.64,3,15.38,7.84Zm-29,24.11c0,9.21,6.37,14.7,14.3,14.7,18.82,0,18.82-29.31,0-29.31C561.39,245.9,555,251.29,555,260.51Z"/><path d="M616.66,236.4l.88,5.58c3.72-6,8.72-6.86,13.62-6.86s9.8,2,12.45,4.61l-5.39,10.39a12,12,0,0,0-8.63-3.14c-6.27,0-12.05,3.33-12.05,12.25v25.48h-12V236.4Z"/><path d="M668,222.77v13.72h13.33v10.3H667.91v20.87c0,4.61,2.55,6.86,6.27,6.86a13.67,13.67,0,0,0,5.78-1.47l3.34,10.19a26.63,26.63,0,0,1-9.9,2.06c-10.49.39-17.35-5.58-17.35-17.64V246.79h-9v-10.3h9V224.05Z"/><path d="M700.44,264.82c.79,6,6,10.29,14.41,10.29,4.41,0,10.19-1.67,12.94-4.51l7.64,7.55c-5.1,5.29-13.43,7.84-20.78,7.84-16.66,0-26.56-10.29-26.56-25.78,0-14.7,10-25.28,25.68-25.28,16.17,0,26.27,10,24.41,29.89Zm26.27-9.9c-.79-6.27-5.69-9.41-12.55-9.41-6.46,0-11.76,3.14-13.52,9.41Z"/><path d="M758.46,236.4l.88,5.58c3.72-6,8.72-6.86,13.62-6.86s9.8,2,12.45,4.61L780,250.12a11.94,11.94,0,0,0-8.63-3.14c-6.27,0-12,3.33-12,12.25v25.48h-12V236.4Z"/><path d="M480.93,402.31v-68.5h49.3v12.44H493.87V365h34.4v12h-34.4v25.38Z"/><path d="M549.33,354l.88,5.58c3.73-6,8.73-6.86,13.63-6.86s9.8,2,12.44,4.61l-5.39,10.39a11.93,11.93,0,0,0-8.62-3.14c-6.27,0-12.06,3.33-12.06,12.25v25.48h-12V354Z"/><path d="M591,382.42c.79,6,6,10.29,14.41,10.29,4.41,0,10.19-1.67,12.94-4.51l7.64,7.55c-5.1,5.29-13.43,7.84-20.78,7.84-16.66,0-26.56-10.29-26.56-25.78,0-14.7,10-25.28,25.68-25.28,16.17,0,26.27,10,24.4,29.89Zm26.27-9.9c-.79-6.27-5.69-9.41-12.55-9.41-6.47,0-11.76,3.14-13.52,9.41Z"/><path d="M648.11,382.42c.79,6,6,10.29,14.41,10.29,4.41,0,10.19-1.67,12.94-4.51l7.64,7.55c-5.09,5.29-13.42,7.84-20.77,7.84-16.67,0-26.57-10.29-26.57-25.78,0-14.7,10-25.28,25.68-25.28,16.17,0,26.27,10,24.41,29.89Zm26.27-9.9c-.78-6.27-5.68-9.41-12.55-9.41-6.46,0-11.76,3.14-13.52,9.41Z"/><path d="M745.23,333.81v68.5H734.06l-.78-6.66c-3.73,5.78-9.71,7.74-15.59,7.74-14.21,0-24.89-9.41-24.89-25.28,0-16.66,10.49-25.29,24.6-25.29,5.1,0,13,2.75,15.88,7.74V333.81Zm-40.47,44.3c0,8.43,6.07,14.21,13.72,14.21s14-5.49,14-14.21a13.79,13.79,0,0,0-14-14.12C710.83,364,704.76,369.38,704.76,378.11Z"/><path d="M767.48,333.81v68.5H755.62v-68.5Z"/><path d="M816.28,354h11.47v48.31H816.48l-.59-7.05c-2.74,5.68-10.29,8.43-15.68,8.52-14.31.1-24.89-8.72-24.89-25.67,0-16.66,11.07-25.39,25.18-25.29,6.47,0,12.65,3,15.39,7.84Zm-29,24.11c0,9.21,6.37,14.7,14.31,14.7,18.82,0,18.82-29.31,0-29.31C793.64,363.5,787.27,368.89,787.27,378.11Z"/><path d="M873.42,402.31V377c0-7.35-4-12.94-11.67-12.94-7.35,0-12.35,6.18-12.35,13.53v24.69H837.54V353.9h10.69l.78,6.57c4.9-4.81,9.8-7.26,15.88-7.26,11.37,0,20.48,8.53,20.48,23.72v25.38Z"/><path d="M945.84,333.81v68.5H934.66l-.78-6.66c-3.72,5.78-9.7,7.74-15.58,7.74-14.21,0-24.9-9.41-24.9-25.28,0-16.66,10.49-25.29,24.6-25.29,5.1,0,13,2.75,15.88,7.74V333.81Zm-40.48,44.3c0,8.43,6.08,14.21,13.72,14.21s14-5.49,14-14.21a13.8,13.8,0,0,0-14-14.12C911.44,364,905.36,369.38,905.36,378.11Z"/><path d="M967.49,382.42c.78,6,6,10.29,14.41,10.29,4.41,0,10.19-1.67,12.93-4.51l7.65,7.55c-5.1,5.29-13.43,7.84-20.78,7.84-16.66,0-26.56-10.29-26.56-25.78,0-14.7,10-25.28,25.68-25.28,16.17,0,26.26,10,24.4,29.89Zm26.27-9.9c-.79-6.27-5.69-9.41-12.55-9.41-6.47,0-11.76,3.14-13.52,9.41Z"/><path d="M1025.5,354l.89,5.58c3.72-6,8.72-6.86,13.62-6.86s9.8,2,12.45,4.61l-5.39,10.39a12,12,0,0,0-8.63-3.14c-6.27,0-12,3.33-12,12.25v25.48h-12V354Z"/><path d="M370.41,354.48C347.83,376.75,318.65,387.1,287,387.1c-81.55,0-116.06-56.15-116.37-113.24-.32-57.4,37-115.75,116.37-115.75,29.8,0,58,11.29,80.62,33.57L340,218.34c-14.43-14.12-33.88-20.7-53-20.7-53,0-75.91,39.52-75.59,76.22.31,36.39,21.33,74.34,75.59,74.34,19.14,0,40.78-7.84,55.21-22.27Z"/><path d="M233.07,468.36V249.13H390.83V289H274.47v179.4Z"/><path d="M406.84,147.88V480.12H151.35V147.88H406.84m8-8H143.35V488.12H414.84V139.88Z"/><path d="M1140.27,59.69V568.31H59.74V59.69H1140.27m70-70H-10.26V638.31H1210.27V-10.31Z"/></svg>